<svg width="20" height="20" viewBox="0 0 20 20" fill="none" xmlns="http://www.w3.org/2000/svg">
<path fill-rule="evenodd" clip-rule="evenodd" d="M11.9 1.6665C12.2498 1.66659 12.5907 1.77674 12.8744 1.98134C13.1581 2.18595 13.3703 2.47463 13.4808 2.8065L13.9333 4.1665H16.6667C16.8877 4.1665 17.0996 4.2543 17.2559 4.41058C17.4122 4.56686 17.5 4.77882 17.5 4.99984C17.5 5.22085 17.4122 5.43281 17.2559 5.58909C17.0996 5.74537 16.8877 5.83317 16.6667 5.83317H15.8333V15.8332C15.8333 16.4962 15.5699 17.1321 15.1011 17.6009C14.6323 18.0698 13.9964 18.3332 13.3333 18.3332H6.66667C6.00363 18.3332 5.36774 18.0698 4.8989 17.6009C4.43006 17.1321 4.16667 16.4962 4.16667 15.8332V5.83317H3.33333C3.11232 5.83317 2.90036 5.74537 2.74408 5.58909C2.5878 5.43281 2.5 5.22085 2.5 4.99984C2.5 4.77882 2.5878 4.56686 2.74408 4.41058C2.90036 4.2543 3.11232 4.1665 3.33333 4.1665H6.06667L6.51917 2.8065C6.62975 2.47449 6.84203 2.18571 7.12592 1.9811C7.4098 1.77649 7.75089 1.66642 8.10083 1.6665H11.9ZM14.1667 5.83317H5.83333V15.8332C5.83333 16.0542 5.92113 16.2661 6.07741 16.4224C6.23369 16.5787 6.44565 16.6665 6.66667 16.6665H13.3333C13.5543 16.6665 13.7663 16.5787 13.9226 16.4224C14.0789 16.2661 14.1667 16.0542 14.1667 15.8332V5.83317ZM11.9 3.33317H8.1L7.8225 4.1665H12.1775L11.9 3.33317Z" fill="white"/>
</svg>
