<svg width="20" height="20" viewBox="0 0 20 20" fill="none" xmlns="http://www.w3.org/2000/svg">
<path fill-rule="evenodd" clip-rule="evenodd" d="M13.9361 2.52509C13.6235 2.21264 13.1997 2.03711 12.7578 2.03711C12.3158 2.03711 11.892 2.21264 11.5794 2.52509L2.98443 11.1201C2.67184 11.4326 2.49619 11.8564 2.49609 12.2984V16.6593C2.49609 17.1234 2.87359 17.5009 3.33776 17.5009L16.6661 17.5001C16.8871 17.5001 17.0991 17.4123 17.2553 17.256C17.4116 17.0997 17.4994 16.8878 17.4994 16.6668C17.4994 16.4457 17.4116 16.2338 17.2553 16.0775C17.0991 15.9212 16.8871 15.8334 16.6661 15.8334H10.0561L17.4719 8.41759C17.7844 8.10504 17.9599 7.68119 17.9599 7.23925C17.9599 6.79731 17.7844 6.37347 17.4719 6.06092L13.9361 2.52509ZM7.69943 15.8334L16.2936 7.23925L12.7578 3.70342L4.16276 12.2984V15.8334H7.69943Z" fill="#404040"/>
</svg>
