<svg width="24" height="24" viewBox="0 0 24 24" fill="none" xmlns="http://www.w3.org/2000/svg">
<path fill-rule="evenodd" clip-rule="evenodd" d="M14.0352 2.8092C14.4052 2.5432 14.9252 2.4192 15.4362 2.6062C16.5226 3.00418 17.5316 3.58786 18.4182 4.3312C18.8352 4.6812 18.9882 5.1922 18.9422 5.6442C18.8672 6.3972 18.9992 7.1242 19.3622 7.7502C19.6822 8.3072 20.1642 8.7472 20.7522 9.0572L20.9772 9.1672C21.3912 9.3542 21.7592 9.7432 21.8522 10.2802C22.0497 11.4184 22.0497 12.582 21.8522 13.7202C21.7692 14.2042 21.4622 14.5672 21.0992 14.7712L20.9772 14.8342C20.2872 15.1442 19.7232 15.6242 19.3612 16.2502C18.9992 16.8772 18.8672 17.6032 18.9422 18.3562C18.9872 18.8082 18.8352 19.3202 18.4182 19.6692C17.5316 20.4125 16.5226 20.9962 15.4362 21.3942C15.204 21.4773 14.955 21.5022 14.7109 21.4668C14.4669 21.4314 14.2352 21.3368 14.0362 21.1912C13.4202 20.7502 12.7232 20.5002 12.0002 20.5002C11.2772 20.5002 10.5802 20.7492 9.96517 21.1912C9.76602 21.337 9.53417 21.4317 9.28994 21.4671C9.0457 21.5024 8.79651 21.4774 8.56417 21.3942C7.47777 20.9962 6.46877 20.4126 5.58217 19.6692C5.39439 19.5097 5.24848 19.3066 5.15715 19.0778C5.06582 18.8489 5.03184 18.6012 5.05817 18.3562C5.13317 17.6032 5.00017 16.8762 4.63817 16.2502C4.30847 15.6913 3.8263 15.2379 3.24817 14.9432L3.02317 14.8332C2.79752 14.7332 2.59978 14.5795 2.44725 14.3855C2.29472 14.1915 2.19203 13.9631 2.14817 13.7202C1.95061 12.582 1.95061 11.4184 2.14817 10.2802C2.23117 9.7962 2.53817 9.4332 2.90117 9.2292L3.02317 9.1672C3.71317 8.8562 4.27717 8.3772 4.63917 7.7502C5.00017 7.1242 5.13317 6.3972 5.05817 5.6442C5.03184 5.39921 5.06582 5.15149 5.15715 4.92264C5.24848 4.69379 5.39439 4.49074 5.58217 4.3312C6.46878 3.58786 7.47778 3.00418 8.56417 2.6062C8.79638 2.52323 9.04536 2.49836 9.2894 2.53374C9.53343 2.56913 9.76509 2.6637 9.96417 2.8092C10.5792 3.2512 11.2762 3.5002 12.0002 3.5002C12.7242 3.5002 13.4202 3.2512 14.0352 2.8092ZM14.9922 4.5782C14.1262 5.1482 13.1052 5.5002 12.0002 5.5002C10.8952 5.5002 9.87417 5.1472 9.00817 4.5782C8.31201 4.8592 7.65892 5.23692 7.06817 5.7002C7.12817 6.7332 6.92317 7.7932 6.37117 8.7502C5.81817 9.7062 5.00317 10.4132 4.07817 10.8782C3.97396 11.6219 3.97396 12.3765 4.07817 13.1202C5.00317 13.5852 5.81817 14.2922 6.37117 15.2502C6.92317 16.2052 7.12817 17.2652 7.06817 18.2982C7.65886 18.7618 8.31195 19.1399 9.00817 19.4212C9.87417 18.8512 10.8952 18.4992 12.0002 18.4992C13.1052 18.4992 14.1262 18.8522 14.9922 19.4212C15.6883 19.1402 16.3414 18.7625 16.9322 18.2992C16.8722 17.2652 17.0772 16.2052 17.6292 15.2492C18.1812 14.2922 18.9972 13.5852 19.9222 13.1192C20.0264 12.3762 20.0264 11.6222 19.9222 10.8792C18.9972 10.4132 18.1822 9.7062 17.6292 8.7492C17.0772 7.7932 16.8722 6.7332 16.9322 5.6992C16.3414 5.23592 15.6883 4.8592 14.9922 4.5782ZM12.0002 8.0002C13.061 8.0002 14.0785 8.42163 14.8286 9.17177C15.5787 9.92192 16.0002 10.9393 16.0002 12.0002C16.0002 13.0611 15.5787 14.0785 14.8286 14.8286C14.0785 15.5788 13.061 16.0002 12.0002 16.0002C10.9393 16.0002 9.92189 15.5788 9.17175 14.8286C8.4216 14.0785 8.00017 13.0611 8.00017 12.0002C8.00017 10.9393 8.4216 9.92192 9.17175 9.17177C9.92189 8.42163 10.9393 8.0002 12.0002 8.0002ZM12.0002 10.0002C11.4697 10.0002 10.961 10.2109 10.586 10.586C10.2109 10.9611 10.0002 11.4698 10.0002 12.0002C10.0002 12.5306 10.2109 13.0393 10.586 13.4144C10.961 13.7895 11.4697 14.0002 12.0002 14.0002C12.5306 14.0002 13.0393 13.7895 13.4144 13.4144C13.7895 13.0393 14.0002 12.5306 14.0002 12.0002C14.0002 11.4698 13.7895 10.9611 13.4144 10.586C13.0393 10.2109 12.5306 10.0002 12.0002 10.0002Z" fill="#0A0A0A"/>
</svg>
