<svg width="32" height="32" viewBox="0 0 32 32" fill="none" xmlns="http://www.w3.org/2000/svg">
<g clip-path="url(#clip0_195_31)">
<path fill-rule="evenodd" clip-rule="evenodd" d="M18.0351 6.8092C18.4051 6.5432 18.9251 6.4192 19.4361 6.6062C20.5224 7.00418 21.5314 7.58786 22.4181 8.3312C22.8351 8.6812 22.9881 9.1922 22.9421 9.6442C22.8671 10.3972 22.9991 11.1242 23.3621 11.7502C23.6821 12.3072 24.1641 12.7472 24.7521 13.0572L24.9771 13.1672C25.3911 13.3542 25.7591 13.7432 25.8521 14.2802C26.0496 15.4184 26.0496 16.582 25.8521 17.7202C25.7691 18.2042 25.4621 18.5672 25.0991 18.7712L24.9771 18.8342C24.2871 19.1442 23.7231 19.6242 23.3611 20.2502C22.9991 20.8772 22.8671 21.6032 22.9421 22.3562C22.9871 22.8082 22.8351 23.3202 22.4181 23.6692C21.5314 24.4125 20.5224 24.9962 19.4361 25.3942C19.2039 25.4773 18.9549 25.5022 18.7108 25.4668C18.4668 25.4314 18.2351 25.3368 18.0361 25.1912C17.4201 24.7502 16.7231 24.5002 16.0001 24.5002C15.2771 24.5002 14.5801 24.7492 13.9651 25.1912C13.7659 25.337 13.5341 25.4317 13.2898 25.4671C13.0456 25.5024 12.7964 25.4774 12.5641 25.3942C11.4777 24.9962 10.4686 24.4126 9.58205 23.6692C9.39427 23.5097 9.24836 23.3066 9.15703 23.0778C9.06569 22.8489 9.03172 22.6012 9.05805 22.3562C9.13305 21.6032 9.00005 20.8762 8.63805 20.2502C8.30835 19.6913 7.82618 19.2379 7.24805 18.9432L7.02305 18.8332C6.7974 18.7332 6.59966 18.5795 6.44713 18.3855C6.2946 18.1915 6.19191 17.9631 6.14805 17.7202C5.95049 16.582 5.95049 15.4184 6.14805 14.2802C6.23105 13.7962 6.53805 13.4332 6.90105 13.2292L7.02305 13.1672C7.71305 12.8562 8.27705 12.3772 8.63905 11.7502C9.00005 11.1242 9.13305 10.3972 9.05805 9.6442C9.03172 9.39921 9.06569 9.15149 9.15703 8.92264C9.24836 8.69379 9.39427 8.49074 9.58205 8.3312C10.4687 7.58786 11.4777 7.00418 12.5641 6.6062C12.7963 6.52323 13.0452 6.49836 13.2893 6.53374C13.5333 6.56913 13.765 6.6637 13.9641 6.8092C14.5791 7.2512 15.2761 7.5002 16.0001 7.5002C16.7241 7.5002 17.4201 7.2512 18.0351 6.8092ZM18.9921 8.5782C18.1261 9.1482 17.1051 9.5002 16.0001 9.5002C14.8951 9.5002 13.8741 9.1472 13.0081 8.5782C12.3119 8.8592 11.6588 9.23692 11.0681 9.7002C11.1281 10.7332 10.9231 11.7932 10.3711 12.7502C9.81805 13.7062 9.00305 14.4132 8.07805 14.8782C7.97384 15.6219 7.97384 16.3765 8.07805 17.1202C9.00305 17.5852 9.81805 18.2922 10.3711 19.2502C10.9231 20.2052 11.1281 21.2652 11.0681 22.2982C11.6587 22.7618 12.3118 23.1399 13.0081 23.4212C13.8741 22.8512 14.8951 22.4992 16.0001 22.4992C17.1051 22.4992 18.1261 22.8522 18.9921 23.4212C19.6882 23.1402 20.3413 22.7625 20.9321 22.2992C20.8721 21.2652 21.0771 20.2052 21.6291 19.2492C22.1811 18.2922 22.9971 17.5852 23.9221 17.1192C24.0262 16.3762 24.0262 15.6222 23.9221 14.8792C22.9971 14.4132 22.1821 13.7062 21.6291 12.7492C21.0771 11.7932 20.8721 10.7332 20.9321 9.6992C20.3413 9.23592 19.6882 8.8592 18.9921 8.5782ZM16.0001 12.0002C17.0609 12.0002 18.0783 12.4216 18.8285 13.1718C19.5786 13.9219 20.0001 14.9393 20.0001 16.0002C20.0001 17.0611 19.5786 18.0785 18.8285 18.8286C18.0783 19.5788 17.0609 20.0002 16.0001 20.0002C14.9392 20.0002 13.9218 19.5788 13.1716 18.8286C12.4215 18.0785 12.0001 17.0611 12.0001 16.0002C12.0001 14.9393 12.4215 13.9219 13.1716 13.1718C13.9218 12.4216 14.9392 12.0002 16.0001 12.0002ZM16.0001 14.0002C15.4696 14.0002 14.9609 14.2109 14.5858 14.586C14.2108 14.9611 14.0001 15.4698 14.0001 16.0002C14.0001 16.5306 14.2108 17.0393 14.5858 17.4144C14.9609 17.7895 15.4696 18.0002 16.0001 18.0002C16.5305 18.0002 17.0392 17.7895 17.4143 17.4144C17.7893 17.0393 18.0001 16.5306 18.0001 16.0002C18.0001 15.4698 17.7893 14.9611 17.4143 14.586C17.0392 14.2109 16.5305 14.0002 16.0001 14.0002Z" fill="#0A0A0A"/>
</g>
<defs>
<clipPath id="clip0_195_31">
<rect width="24" height="24" fill="white" transform="translate(4 4)"/>
</clipPath>
</defs>
</svg>
